<?xml version="1.0" standalone="no"?>
<!DOCTYPE svg PUBLIC "-//W3C//DTD SVG 20010904//EN"
 "http://www.w3.org/TR/2001/REC-SVG-20010904/DTD/svg10.dtd">
<svg version="1.0" xmlns="http://www.w3.org/2000/svg"
 width="512.000000pt" height="512.000000pt" viewBox="0 0 512.000000 512.000000"
 preserveAspectRatio="xMidYMid meet">
<metadata>
Created by potrace 1.16, written by Peter Selinger 2001-2019
</metadata>
<g transform="translate(0.000000,512.000000) scale(0.100000,-0.100000)"
fill="#000000" stroke="none">
<path d="M2320 4645 c-520 -75 -963 -353 -1251 -783 -349 -521 -395 -1197
-121 -1760 134 -276 275 -445 559 -672 45 -37 180 -117 266 -159 134 -65 282
-115 436 -148 115 -25 145 -27 351 -27 206 0 236 2 351 27 537 114 976 441
1232 917 87 161 153 359 189 560 17 100 17 450 0 550 -141 798 -740 1382
-1533 1495 -124 17 -360 18 -479 0z m-715 -909 c64 -17 91 -32 136 -78 51 -51
88 -131 95 -206 6 -57 10 -65 37 -78 16 -9 43 -30 59 -46 27 -28 30 -36 26
-78 -6 -61 -47 -116 -97 -130 -20 -5 -77 -10 -126 -10 l-90 0 -17 -48 c-26
-72 -120 -165 -149 -146 -8 4 -9 3 -5 -4 12 -20 -133 -14 -172 6 l-33 18 21
27 c18 22 25 25 46 17 36 -14 110 -12 137 3 38 21 76 54 70 61 -4 3 -1 6 5 6
16 0 26 103 13 142 -6 19 -29 52 -51 73 -37 36 -44 39 -97 39 -32 1 -69 -3
-83 -7 -21 -6 -28 -3 -41 22 l-17 29 42 16 c56 21 104 20 170 -4 63 -24 127
-87 145 -143 l13 -37 94 0 c122 0 146 13 142 77 -2 54 -24 73 -86 73 -38 0
-43 2 -37 18 4 9 10 46 12 82 5 58 2 73 -22 119 -32 64 -63 95 -124 122 -129
58 -291 -1 -345 -125 l-22 -51 -83 0 -82 0 -45 -47 c-42 -45 -44 -49 -44 -108
0 -34 5 -71 12 -83 31 -60 107 -96 201 -97 51 0 67 -3 67 -14 0 -8 3 -21 6
-30 5 -14 -5 -16 -68 -16 -142 0 -226 42 -274 137 -23 46 -26 61 -21 113 7 67
23 103 64 141 56 51 101 72 166 73 42 1 62 6 65 16 3 8 16 26 29 39 12 14 23
29 23 33 0 10 90 71 90 61 0 -4 4 -3 8 3 20 30 156 42 237 20z m1175 -128
c128 -51 211 -127 256 -236 l29 -67 0 -530 0 -530 -34 -70 c-42 -85 -115 -160
-193 -198 -35 -16 -97 -33 -161 -44 -98 -16 -111 -16 -198 0 -170 31 -268 96
-336 224 -36 66 -53 185 -53 359 l0 94 128 0 c115 1 214 5 267 12 19 3 20 -4
25 -195 5 -182 7 -200 24 -213 25 -18 66 -17 90 1 24 18 37 140 34 334 -1 130
0 135 21 143 18 6 21 14 19 49 -1 27 -8 45 -22 55 -29 20 -30 49 -2 67 19 13
23 23 21 58 -1 25 -8 47 -18 54 -13 10 -17 38 -21 161 -6 196 -9 212 -51 220
-41 7 -71 -1 -81 -24 -4 -9 -9 -79 -12 -154 l-4 -136 -205 0 c-172 1 -206 4
-211 16 -3 9 0 74 6 146 14 164 35 217 119 300 59 58 135 100 213 117 56 12
310 3 350 -13z m1320 -168 l0 -160 -130 0 -130 0 0 -660 0 -660 -210 0 -210 0
0 660 0 660 -125 0 -125 0 0 160 0 160 465 0 465 0 0 -160z m-1627 -443 c-3
-4 -4 -84 -3 -177 1 -157 -1 -170 -17 -171 -24 0 -260 3 -298 5 l-30 1 -3 172
-2 172 27 3 c59 7 331 3 326 -5z m-933 -651 c0 -348 -1 -396 -16 -410 -12 -12
-36 -16 -105 -16 l-89 0 0 410 0 410 105 0 104 0 1 -394z"/>
<path d="M2155 3224 c-15 -11 -20 -29 -23 -84 -4 -69 -4 -70 21 -70 24 0 25 3
25 61 0 33 2 63 6 66 3 3 16 3 29 -1 22 -5 23 -9 19 -59 -5 -58 7 -78 33 -57
19 16 9 130 -14 147 -22 17 -72 16 -96 -3z"/>
<path d="M2245 2893 c-56 -55 -25 -143 51 -143 39 0 84 36 84 68 0 28 -27 75
-47 84 -32 12 -71 8 -88 -9z"/>
<path d="M2555 502 c-11 -2 -23 -7 -27 -10 -4 -4 -8 -81 -9 -172 l-3 -165 71
-3 c63 -2 75 1 100 22 25 21 28 32 31 98 4 68 2 77 -21 103 -20 24 -32 29 -66
28 l-41 -2 0 49 c0 53 -4 59 -35 52z"/>
<path d="M1207 484 c-14 -15 -6 -46 13 -51 18 -5 20 -14 20 -113 0 -99 -2
-108 -20 -113 -12 -3 -20 -14 -20 -26 0 -19 6 -21 75 -21 69 0 75 2 75 21 0
12 -8 23 -20 26 -18 5 -20 14 -20 113 0 101 1 108 21 113 15 4 20 12 17 29 -3
21 -9 23 -68 26 -36 2 -69 0 -73 -4z"/>
<path d="M1630 455 c0 -33 2 -35 35 -35 l35 0 0 -130 0 -130 35 0 35 0 0 130
0 130 30 0 c19 0 33 7 40 21 23 42 8 49 -105 49 l-105 0 0 -35z"/>
<path d="M2047 484 c-4 -4 -7 -79 -7 -166 l0 -159 93 3 92 3 3 28 c3 27 3 27
-57 27 l-60 0 -3 133 -3 132 -25 3 c-14 2 -29 0 -33 -4z"/>
<path d="M3077 483 c-4 -3 -7 -78 -7 -165 l0 -158 35 0 34 0 3 62 3 63 49 -68
c28 -37 56 -67 64 -67 20 0 52 19 52 32 0 6 -24 41 -53 77 l-54 66 49 64 c51
68 57 85 32 95 -33 13 -45 4 -92 -60 l-47 -66 -3 66 c-3 65 -3 66 -31 66 -15
0 -31 -3 -34 -7z"/>
<path d="M3337 484 c-14 -15 -6 -46 13 -51 18 -5 20 -14 20 -113 0 -99 -2
-108 -20 -113 -12 -3 -20 -14 -20 -26 0 -19 6 -21 75 -21 69 0 75 2 75 21 0
12 -8 23 -20 26 -18 5 -20 14 -20 113 0 101 1 108 21 113 15 4 20 12 17 29 -3
21 -9 23 -68 26 -36 2 -69 0 -73 -4z"/>
<path d="M3527 484 c-13 -14 -7 -54 8 -54 12 0 15 -19 15 -110 0 -91 -3 -110
-15 -110 -9 0 -15 -9 -15 -25 0 -24 2 -25 70 -25 68 0 70 1 70 25 0 16 -6 25
-15 25 -12 0 -15 19 -15 110 0 93 2 110 16 110 11 0 14 8 12 28 -3 26 -6 27
-63 30 -34 2 -64 0 -68 -4z"/>
<path d="M3684 476 c-12 -31 1 -51 34 -54 l32 -3 0 -130 0 -129 40 0 40 0 0
130 0 130 30 0 c24 0 33 6 40 26 6 14 8 30 4 35 -3 5 -52 9 -110 9 -82 0 -106
-3 -110 -14z"/>
<path d="M1460 397 c-61 -21 -89 -113 -56 -192 17 -41 42 -55 96 -55 33 0 48
6 71 29 26 27 29 36 29 95 0 58 -3 69 -27 95 -34 35 -66 43 -113 28z"/>
<path d="M2320 401 c-25 -4 -36 -12 -38 -26 -4 -35 11 -47 43 -35 33 12 55 7
55 -13 0 -9 -15 -17 -40 -21 -52 -8 -80 -36 -80 -81 0 -48 29 -75 79 -75 22 0
43 5 47 11 5 8 9 8 14 -1 5 -8 18 -10 35 -6 24 6 27 10 21 38 -3 17 -6 61 -6
98 0 99 -35 128 -130 111z"/>
</g>
</svg>
